<?xml version="1.0" encoding="UTF-8" standalone="no"?>
<svg
  height="71.10614"
  width="280"
  version="1.1"
  id="Layer_1"
  viewBox="0 0 280 71.10614"
  xml:space="preserve"
  fill="#000000"
  xmlns:xlink="http://www.w3.org/1999/xlink"
  xmlns="http://www.w3.org/2000/svg"
  xmlns:svg="http://www.w3.org/2000/svg"><defs
     id="defs18"><linearGradient
       id="linearGradient992"><stop
         style="stop-color:#ff6600;stop-opacity:1;"
         offset="0"
         id="stop988" /><stop
         style="stop-color:#ee0979;stop-opacity:1;"
         offset="1"
         id="stop990" /></linearGradient><linearGradient
       xlink:href="#linearGradient992"
       id="linearGradient994"
       x1="-91.441292"
       y1="-88.20076"
       x2="574.81293"
       y2="557.31396"
       gradientUnits="userSpaceOnUse"
       gradientTransform="matrix(0.4460184,0,0,0.3080287,32.522259,-37.096363)" /></defs><path
     id="rect907"
     mask="none"
     style="fill:url(#linearGradient994);fill-opacity:1;stroke-width:2.94949;stroke-miterlimit:3"
     d="m 188.63086,3.3784859e-4 c -25.03739,0 -37.55469,7.28397715141 -37.55469,21.84960915141 0,4.611018 1.14182,8.294741 3.42578,11.052737 2.32706,2.714894 5.77387,4.740273 10.3418,6.076169 l 22.30078,6.464844 c 2.7149,0.818782 4.07422,2.152834 4.07422,4.005861 0,1.766834 -1.31661,3.062083 -3.94531,3.880857 -2.62871,0.775687 -6.8717,1.162113 -12.73242,1.162113 -2.11159,0 -5.02247,-0.170878 -8.72852,-0.515627 -3.70605,-0.34475 -8.27333,-0.861288 -13.70313,-1.55078 l -2.06836,16.740233 c 6.07621,1.292813 14.24373,1.939454 24.50001,1.939454 23.39982,0 35.09961,-7.198535 35.09961,-21.591797 0,-4.86958 -1.46612,-8.811576 -4.39649,-11.828126 -2.88727,-3.059647 -7.28172,-5.386005 -13.18555,-6.980467 l -19.19921,-5.300781 c -2.58562,-0.732594 -3.87696,-2.047241 -3.87696,-3.943361 0,-1.72374 1.50689,-2.95296 4.52344,-3.685546 3.05964,-0.775687 7.97258,-1.162109 14.73828,-1.162109 2.0254,0 4.50322,0.06408 7.4336,0.193359 2.93036,0.129282 6.35582,0.366193 10.27734,0.710935 l 1.875,-16.2246091 C 204.2964,0.86237525 200.93502,0.54002271 197.7461,0.32455912 194.60026,0.10909201 191.56122,3.3784859e-4 188.63086,3.3784859e-4 Z M 74.08789,1.2933059 V 16.353853 h 35.35938 L 74.08789,54.752292 V 69.81284 h 56.36719 V 54.752292 H 94.708983 L 129.16211,16.353853 V 1.2933059 Z M 48.041015,2.547213 c -0.917016,0 -1.831558,0.2545914 -2.746094,0.7734383 L 5.7011719,25.791354 C 1.9012449,27.961119 0,31.217202 0,35.55112 c 0,4.34079 1.9012449,7.594529 5.7011719,9.763671 L 45.294921,67.785494 c 0.914536,0.514473 1.829078,0.773439 2.746094,0.773439 1.97086,0 3.626787,-1.086712 4.964845,-3.255861 1.333725,-2.174144 2.003906,-4.711193 2.003906,-7.605468 0,-4.55145 -1.545236,-7.704212 -4.638673,-9.457029 L 28.027344,35.553073 50.371093,22.871434 c 3.093437,-1.755949 4.638673,-4.910893 4.638673,-9.464846 0,-2.894275 -0.670181,-5.4285121 -2.003906,-7.5976547 C 51.664705,3.6322805 50.011256,2.547213 48.041015,2.547213 Z m 183.917965,0 c -1.97086,0 -3.62679,1.086711 -4.96484,3.2558606 -1.33373,2.1741435 -2.00391,4.7111924 -2.00391,7.6054674 0,4.551451 1.54524,7.704206 4.63868,9.457033 l 22.34375,12.687499 -22.34375,12.681642 c -3.09344,1.755939 -4.63868,4.91089 -4.63868,9.464843 0,2.894278 0.67018,5.428512 2.00391,7.597654 1.34115,2.176653 2.9946,3.261721 4.96484,3.261721 0.91702,0 1.83157,-0.254592 2.7461,-0.773439 L 274.29883,45.314791 C 278.09876,43.145022 280,39.888944 280,35.555026 c 0,-4.340787 -1.90124,-7.594529 -5.70117,-9.763672 L 234.70508,3.3206513 C 233.79055,2.8061824 232.876,2.547213 231.95898,2.547213 Z" /></svg>