<?xml version="1.0" encoding="UTF-8" standalone="no"?>
<svg
   height="200"
   width="300"
   version="1.1"
   id="Layer_1"
   viewBox="-47.37 -47.37 852.585 568.39"
   xml:space="preserve"
   fill="#000000"
   sodipodi:docname="new.svg"
   inkscape:version="1.2.2 (732a01da63, 2022-12-09)"
   xmlns:inkscape="http://www.inkscape.org/namespaces/inkscape"
   xmlns:sodipodi="http://sodipodi.sourceforge.net/DTD/sodipodi-0.dtd"
   xmlns:xlink="http://www.w3.org/1999/xlink"
   xmlns="http://www.w3.org/2000/svg"
   xmlns:svg="http://www.w3.org/2000/svg"><defs
     id="defs18"><inkscape:path-effect
       effect="bspline"
       id="path-effect2124"
       is_visible="true"
       lpeversion="1"
       weight="33.333333"
       steps="2"
       helper_size="0"
       apply_no_weight="true"
       apply_with_weight="true"
       only_selected="false" /><inkscape:path-effect
       effect="spiro"
       id="path-effect2120"
       is_visible="true"
       lpeversion="1" /><linearGradient
       inkscape:collect="always"
       id="linearGradient992"><stop
         style="stop-color:#ff6600;stop-opacity:1;"
         offset="0"
         id="stop988" /><stop
         style="stop-color:#ee0979;stop-opacity:1;"
         offset="1"
         id="stop990" /></linearGradient><linearGradient
       inkscape:collect="always"
       xlink:href="#linearGradient992"
       id="linearGradient994"
       x1="-91.441292"
       y1="-88.20076"
       x2="574.81293"
       y2="557.31396"
       gradientUnits="userSpaceOnUse"
       gradientTransform="matrix(1.267341,0,0,0.87524954,70.16004,30.39493)" /></defs><sodipodi:namedview
     id="namedview16"
     pagecolor="#ffffff"
     bordercolor="#000000"
     borderopacity="0.25"
     inkscape:showpageshadow="2"
     inkscape:pageopacity="0"
     inkscape:pagecheckerboard="0"
     inkscape:deskcolor="#cfcfcf"
     showgrid="false"
     inkscape:zoom="2.8284271"
     inkscape:cx="125.33468"
     inkscape:cy="143.18912"
     inkscape:window-width="1842"
     inkscape:window-height="1057"
     inkscape:window-x="1912"
     inkscape:window-y="-8"
     inkscape:window-maximized="1"
     inkscape:current-layer="Layer_1"><inkscape:grid
       type="xygrid"
       id="grid1994" /></sodipodi:namedview><rect
     style="fill:url(#linearGradient994);fill-opacity:1;stroke-width:8.38083;stroke-miterlimit:3"
     id="rect907"
     width="852.58502"
     height="568.39001"
     x="-47.369999"
     y="-47.369999"
     mask="none"
     inkscape:label="rect907" /><g
     id="g2228"><path
       style="fill:#ffffff;stroke-width:0;stroke-dasharray:none"
       d="m 617.04954,173.90097 c 0,-8.22397 1.90189,-15.43016 5.69162,-21.60791 3.80201,-6.16354 8.50662,-9.25241 14.10673,-9.25241 2.60566,0 5.20427,0.73714 7.80287,2.19898 l 112.50738,63.84678 c 10.79734,6.16354 16.19865,15.41063 16.19865,27.7448 0,12.31465 -5.40131,21.56706 -16.19865,27.73238 l -112.50738,63.84678 c -2.5986,1.47428 -5.19721,2.19898 -7.80287,2.19898 -5.59835,0 -10.29591,-3.08176 -14.10673,-9.26662 -3.78973,-6.16354 -5.69162,-13.36439 -5.69162,-21.58837 0,-12.93987 4.38791,-21.90631 13.17779,-26.89575 l 63.49091,-36.0345 -63.49091,-36.04869 c -8.78988,-4.98058 -13.17779,-13.94169 -13.17779,-26.87445 z"
       id="path1807"
       inkscape:label="&gt;" /><path
       style="fill:#ffffff;stroke-width:1.76779"
       d="m 134.05678,299.74903 c 0,8.22397 -1.90189,15.43016 -5.69161,21.60791 -3.80203,6.16354 -8.50663,9.25241 -14.10674,9.25241 -2.60566,0 -5.20427,-0.73713 -7.80288,-2.19898 L -6.0518177,264.56358 c -10.7973413,-6.16354 -16.1986563,-15.41061 -16.1986563,-27.74479 0,-12.31465 5.401315,-21.56706 16.1986563,-27.73237 L 106.45555,145.23963 c 2.59861,-1.47428 5.19722,-2.19898 7.80288,-2.19898 5.59835,0 10.29591,3.08176 14.10674,9.26662 3.78972,6.16354 5.69161,13.3644 5.69161,21.58837 0,12.93987 -4.38791,21.90631 -13.17779,26.89576 l -63.490918,36.03448 63.490918,36.04871 c 8.78988,4.98057 13.17779,13.94168 13.17779,26.87444 z"
       id="path1809"
       inkscape:label="&lt;" /><text
       xml:space="preserve"
       style="font-style:normal;font-variant:normal;font-weight:bold;font-stretch:normal;font-size:376.163px;font-family:'CaskaydiaCove Nerd Font Propo';-inkscape-font-specification:'CaskaydiaCove Nerd Font Propo, Bold';font-variant-ligatures:normal;font-variant-caps:normal;font-variant-numeric:normal;font-variant-east-asian:normal;fill:#ffffff;fill-opacity:1;stroke-width:18.3618;stroke-miterlimit:3;stroke-dasharray:none"
       x="158.14716"
       y="334.17188"
       id="text2173"><tspan
         sodipodi:role="line"
         id="tspan2171"
         style="font-style:normal;font-variant:normal;font-weight:bold;font-stretch:normal;font-size:376.16297552px;font-family:'CaskaydiaCove Nerd Font Propo';-inkscape-font-specification:'CaskaydiaCove Nerd Font Propo, Bold';font-variant-ligatures:normal;font-variant-caps:normal;font-variant-numeric:normal;font-variant-east-asian:normal;stroke-width:18.36183966;stroke-dasharray:none"
         x="158.14716"
         y="334.17188">zs</tspan></text></g></svg>
